<svg width="188" height="40" viewBox="0 0 188 40" fill="none" xmlns="http://www.w3.org/2000/svg">
<path d="M53.7614 31V7.72727H63.375C65.1174 7.72727 66.6212 8.04167 67.8864 8.67045C69.1591 9.29167 70.1402 10.1856 70.8295 11.3523C71.5189 12.5114 71.8636 13.8864 71.8636 15.4773C71.8636 17.0909 71.5114 18.4621 70.8068 19.5909C70.1023 20.7121 69.1023 21.5682 67.8068 22.1591C66.5114 22.7424 64.9773 23.0341 63.2045 23.0341H57.125V18.6023H62.1591C63.0076 18.6023 63.7159 18.4924 64.2841 18.2727C64.8598 18.0455 65.2955 17.7045 65.5909 17.25C65.8864 16.7879 66.0341 16.197 66.0341 15.4773C66.0341 14.7576 65.8864 14.1629 65.5909 13.6932C65.2955 13.2159 64.8598 12.8598 64.2841 12.625C63.7083 12.3826 63 12.2614 62.1591 12.2614H59.3864V31H53.7614ZM66.8636 20.3636L72.6591 31H66.5227L60.8409 20.3636H66.8636ZM74.9489 31V13.5455H80.5057V31H74.9489ZM77.733 11.5114C76.9527 11.5114 76.2822 11.2538 75.7216 10.7386C75.161 10.2159 74.8807 9.58712 74.8807 8.85227C74.8807 8.125 75.161 7.50379 75.7216 6.98864C76.2822 6.46591 76.9527 6.20454 77.733 6.20454C78.5208 6.20454 79.1913 6.46591 79.7443 6.98864C80.3049 7.50379 80.5852 8.125 80.5852 8.85227C80.5852 9.58712 80.3049 10.2159 79.7443 10.7386C79.1913 11.2538 78.5208 11.5114 77.733 11.5114ZM90.4176 31.25C89.1297 31.25 87.9593 30.9167 86.9062 30.25C85.8532 29.5833 85.0123 28.5833 84.3835 27.25C83.7547 25.9167 83.4403 24.2614 83.4403 22.2841C83.4403 20.2311 83.7661 18.5417 84.4176 17.2159C85.0691 15.8902 85.9214 14.9091 86.9744 14.2727C88.035 13.6364 89.1752 13.3182 90.3949 13.3182C91.3116 13.3182 92.0956 13.4773 92.7472 13.7955C93.3987 14.1061 93.9366 14.5076 94.3608 15C94.785 15.4924 95.107 16.0038 95.3267 16.5341H95.4403V7.72727H100.997V31H95.4972V28.1705H95.3267C95.0919 28.7083 94.7585 29.2121 94.3267 29.6818C93.8949 30.1515 93.3532 30.5303 92.7017 30.8182C92.0578 31.1061 91.2964 31.25 90.4176 31.25ZM92.3494 26.9205C93.0237 26.9205 93.5994 26.7311 94.0767 26.3523C94.554 25.9659 94.9214 25.4242 95.179 24.7273C95.4366 24.0303 95.5653 23.2121 95.5653 22.2727C95.5653 21.3182 95.4366 20.4962 95.179 19.8068C94.929 19.1174 94.5616 18.5871 94.0767 18.2159C93.5994 17.8447 93.0237 17.6591 92.3494 17.6591C91.66 17.6591 91.0767 17.8485 90.5994 18.2273C90.1222 18.6061 89.7585 19.1402 89.5085 19.8295C89.2661 20.5189 89.1449 21.3333 89.1449 22.2727C89.1449 23.2121 89.2699 24.0303 89.5199 24.7273C89.7699 25.4242 90.1297 25.9659 90.5994 26.3523C91.0767 26.7311 91.66 26.9205 92.3494 26.9205ZM110.886 31.25C109.598 31.25 108.428 30.9167 107.375 30.25C106.322 29.5833 105.481 28.5833 104.852 27.25C104.223 25.9167 103.909 24.2614 103.909 22.2841C103.909 20.2311 104.235 18.5417 104.886 17.2159C105.538 15.8902 106.39 14.9091 107.443 14.2727C108.504 13.6364 109.644 13.3182 110.864 13.3182C111.78 13.3182 112.564 13.4773 113.216 13.7955C113.867 14.1061 114.405 14.5076 114.83 15C115.254 15.4924 115.576 16.0038 115.795 16.5341H115.909V7.72727H121.466V31H115.966V28.1705H115.795C115.561 28.7083 115.227 29.2121 114.795 29.6818C114.364 30.1515 113.822 30.5303 113.17 30.8182C112.527 31.1061 111.765 31.25 110.886 31.25ZM112.818 26.9205C113.492 26.9205 114.068 26.7311 114.545 26.3523C115.023 25.9659 115.39 25.4242 115.648 24.7273C115.905 24.0303 116.034 23.2121 116.034 22.2727C116.034 21.3182 115.905 20.4962 115.648 19.8068C115.398 19.1174 115.03 18.5871 114.545 18.2159C114.068 17.8447 113.492 17.6591 112.818 17.6591C112.129 17.6591 111.545 17.8485 111.068 18.2273C110.591 18.6061 110.227 19.1402 109.977 19.8295C109.735 20.5189 109.614 21.3333 109.614 22.2727C109.614 23.2121 109.739 24.0303 109.989 24.7273C110.239 25.4242 110.598 25.9659 111.068 26.3523C111.545 26.7311 112.129 26.9205 112.818 26.9205ZM133.128 31.3295C131.295 31.3295 129.719 30.9545 128.401 30.2045C127.09 29.447 126.079 28.3939 125.366 27.0455C124.662 25.6894 124.31 24.1174 124.31 22.3295C124.31 20.5341 124.662 18.9621 125.366 17.6136C126.079 16.2576 127.09 15.2045 128.401 14.4545C129.719 13.697 131.295 13.3182 133.128 13.3182C134.961 13.3182 136.533 13.697 137.844 14.4545C139.162 15.2045 140.173 16.2576 140.878 17.6136C141.59 18.9621 141.946 20.5341 141.946 22.3295C141.946 24.1174 141.59 25.6894 140.878 27.0455C140.173 28.3939 139.162 29.447 137.844 30.2045C136.533 30.9545 134.961 31.3295 133.128 31.3295ZM133.162 27.1364C133.829 27.1364 134.393 26.9318 134.855 26.5227C135.317 26.1136 135.67 25.5455 135.912 24.8182C136.162 24.0909 136.287 23.25 136.287 22.2955C136.287 21.3258 136.162 20.4773 135.912 19.75C135.67 19.0227 135.317 18.4545 134.855 18.0455C134.393 17.6364 133.829 17.4318 133.162 17.4318C132.473 17.4318 131.889 17.6364 131.412 18.0455C130.942 18.4545 130.582 19.0227 130.332 19.75C130.09 20.4773 129.969 21.3258 129.969 22.2955C129.969 23.25 130.09 24.0909 130.332 24.8182C130.582 25.5455 130.942 26.1136 131.412 26.5227C131.889 26.9318 132.473 27.1364 133.162 27.1364ZM148.895 13.5455L151.77 19.2955L154.747 13.5455H160.349L155.474 22.2727L160.531 31H154.974L151.77 25.2045L148.645 31H143.009L148.077 22.2727L143.259 13.5455H148.895Z" fill="white"/>
<path d="M3.68879 20.9523C5.63481 18.3262 8.01539 16.0752 10.7268 14.4363C12.107 13.6021 13.1736 13.1205 14.5946 12.6512C15.2616 12.431 15.9427 12.2553 16.6293 12.1084C17.529 11.9157 17.7463 11.8942 18.5659 11.826C21.5437 11.5786 23.974 12.0076 26.8029 13.1402C26.9428 13.1962 27.2077 13.3165 27.5446 13.4759C27.8762 13.6327 28.2015 13.8024 28.5245 13.9759C29.2413 14.3611 29.9309 14.7952 30.6016 15.2555C31.8221 16.093 33.0379 17.1767 34.1652 18.3471C34.9549 19.1671 35.704 20.0544 36.3693 20.9522C36.9332 21.7131 37.8655 22.096 38.7516 21.5768C39.5034 21.1364 39.9426 19.959 39.3762 19.1946C35.4233 13.8605 29.8722 9.53449 23.1573 8.53925C16.6794 7.57929 10.456 9.78359 5.49524 13.9401C3.6652 15.4734 2.10012 17.2809 0.681915 19.1947C0.115509 19.9591 0.55465 21.1364 1.30656 21.5769C2.1927 22.0961 3.12488 21.7132 3.68879 20.9523Z" fill="#4A5699"/>
<path d="M36.3693 19.1944C34.4234 21.8205 32.0427 24.0716 29.3313 25.7105C27.9512 26.5446 26.8845 27.0263 25.4635 27.4954C24.7965 27.7158 24.1154 27.8914 23.4288 28.0385C22.5291 28.2311 22.3119 28.2525 21.4922 28.3207C18.5144 28.5682 16.0841 28.1391 13.2552 27.0066C13.1152 26.9505 12.8504 26.8302 12.5135 26.6708C12.1819 26.514 11.8566 26.3444 11.5335 26.1708C10.8168 25.7855 10.1271 25.3515 9.45648 24.8913C8.23597 24.0537 7.02015 22.97 5.89292 21.7995C5.10316 20.9796 4.35406 20.0923 3.68874 19.1944C3.12484 18.4336 2.19265 18.0507 1.30652 18.5698C0.554604 19.0103 0.115463 20.1877 0.681869 20.952C4.63476 26.2863 10.1859 30.6124 16.9008 31.6074C23.3787 32.5675 29.6021 30.3631 34.5628 26.2067C36.3929 24.6732 37.958 22.8657 39.3762 20.9519C39.9426 20.1877 39.5034 19.0102 38.7516 18.5698C37.8654 18.0507 36.9332 18.4336 36.3693 19.1944Z" fill="#C45FA0"/>
<path d="M23.2323 20.2826C23.2334 22.0898 21.8812 23.5404 20.1029 23.6102C18.2965 23.6811 16.843 22.2067 16.7752 20.4809C16.738 19.5328 16.0113 18.7398 15.034 18.7398C14.113 18.7398 13.2556 19.532 13.2929 20.4809C13.4376 24.1676 16.3848 27.095 20.1028 27.0926C23.7925 27.0901 26.7169 23.8935 26.7146 20.2826C26.713 18.0371 23.2308 18.0369 23.2323 20.2826Z" fill="#F39A2B"/>
<path d="M16.8238 20.1101C16.858 18.336 18.2793 16.9149 20.0533 16.8807C21.8282 16.8465 23.2496 18.3874 23.2827 20.1101C23.3259 22.3528 26.8084 22.357 26.765 20.1101C26.6937 16.4073 23.7561 13.4697 20.0533 13.3984C16.3507 13.327 13.4108 16.515 13.3414 20.1101C13.2982 22.357 16.7805 22.3528 16.8238 20.1101Z" fill="#E5594F"/>
</svg>
